<svg xmlns="http://www.w3.org/2000/svg" viewBox="0 0 64 64" role="img" aria-label="GENSO-GEO logo">
  <defs>
    <linearGradient id="seal" x1="10" y1="8" x2="54" y2="58" gradientUnits="userSpaceOnUse">
      <stop offset="0" stop-color="#e11d48"/>
      <stop offset="0.58" stop-color="#be123c"/>
      <stop offset="1" stop-color="#7f1d1d"/>
    </linearGradient>
    <linearGradient id="gold" x1="18" y1="14" x2="44" y2="50" gradientUnits="userSpaceOnUse">
      <stop offset="0" stop-color="#fde68a"/>
      <stop offset="1" stop-color="#d97706"/>
    </linearGradient>
  </defs>
  <rect width="64" height="64" rx="16" fill="#fffaf0"/>
  <circle cx="32" cy="32" r="25" fill="url(#seal)"/>
  <circle cx="32" cy="32" r="20" fill="none" stroke="#fff7ed" stroke-width="2.5"/>
  <path d="M32 12c5.8 5.8 8.7 11.8 8.7 18 0 9.1-6.4 16-16 16-5.1 0-9.1-2.4-11.7-6.1 2.7 8.2 10.4 14.1 19.5 14.1C43.8 54 53 44.8 53 33.5 53 22.2 43.8 13 32.5 13c-.2 0-.3 0-.5 0z" fill="#fff7ed" opacity=".96"/>
  <path d="M31.7 13.2c-7.5.3-14.1 5.6-16 12.9 2.4-2.8 5.9-4.6 10.2-4.6 8 0 13.4 5.7 13.4 13.7 0 6.2-3.1 11.1-8.6 14.8 8.8-.1 16-7.3 16-16.1 0-8.7-6.8-15.9-15-16.7z" fill="url(#gold)" opacity=".95"/>
  <circle cx="25.4" cy="31.6" r="4.3" fill="#be123c"/>
  <circle cx="38.5" cy="31.9" r="4.3" fill="#fff7ed"/>
  <path d="M14 32h48M32 2v12M32 50v12" stroke="#7f1d1d" stroke-width="2" stroke-linecap="round" opacity=".22"/>
</svg>
